<svg width="327" height="29" viewBox="0 0 327 29" fill="none" xmlns="http://www.w3.org/2000/svg">
<path d="M8.12252 28L0.598516 1.4H5.19652L10.7825 22.186L16.8245 1.4H20.8525L26.8565 22.186L32.4425 1.4H37.0405L29.5165 28H24.4625L18.8385 8.582L13.1765 28H8.12252ZM50.9672 8.506C53.1459 8.506 54.9066 9.20267 56.2492 10.596C57.5919 11.9893 58.2632 13.902 58.2632 16.334V28H54.1592V16.752C54.1592 15.3333 53.7792 14.244 53.0192 13.484C52.2592 12.724 51.2206 12.344 49.9032 12.344C48.4592 12.344 47.2939 12.8 46.4072 13.712C45.5206 14.5987 45.0772 15.9667 45.0772 17.816V28H40.9732V1.4H45.0772V11.432C46.3186 9.48133 48.2819 8.506 50.9672 8.506ZM79.2502 9H83.3542V28H79.2502V25.264C77.7049 27.4173 75.4882 28.494 72.6002 28.494C69.9909 28.494 67.7615 27.5313 65.9122 25.606C64.0629 23.6553 63.1382 21.2867 63.1382 18.5C63.1382 15.688 64.0629 13.3193 65.9122 11.394C67.7615 9.46867 69.9909 8.506 72.6002 8.506C75.4882 8.506 77.7049 9.57 79.2502 11.698V9ZM68.9522 22.87C70.0922 24.01 71.5235 24.58 73.2462 24.58C74.9689 24.58 76.4002 24.01 77.5402 22.87C78.6802 21.7047 79.2502 20.248 79.2502 18.5C79.2502 16.752 78.6802 15.308 77.5402 14.168C76.4002 13.0027 74.9689 12.42 73.2462 12.42C71.5235 12.42 70.0922 13.0027 68.9522 14.168C67.8122 15.308 67.2422 16.752 67.2422 18.5C67.2422 20.248 67.8122 21.7047 68.9522 22.87ZM100.26 12.952H95.5477V22.072C95.5477 22.8573 95.7251 23.4273 96.0797 23.782C96.4344 24.1113 96.9537 24.3013 97.6377 24.352C98.3471 24.3773 99.2211 24.3647 100.26 24.314V28C97.1184 28.38 94.8637 28.114 93.4957 27.202C92.1277 26.2647 91.4437 24.5547 91.4437 22.072V12.952H87.9477V9H91.4437V4.896L95.5477 3.68V9H100.26V12.952ZM125.676 28.494C122.813 28.494 120.419 27.5313 118.494 25.606C116.594 23.6807 115.644 21.312 115.644 18.5C115.644 15.6627 116.594 13.294 118.494 11.394C120.419 9.46867 122.813 8.506 125.676 8.506C127.525 8.506 129.21 8.94933 130.73 9.836C132.25 10.7227 133.39 11.9133 134.15 13.408L130.616 15.46C130.185 14.548 129.526 13.8387 128.64 13.332C127.778 12.8 126.778 12.534 125.638 12.534C123.966 12.534 122.56 13.104 121.42 14.244C120.305 15.384 119.748 16.8027 119.748 18.5C119.748 20.1973 120.305 21.616 121.42 22.756C122.56 23.896 123.966 24.466 125.638 24.466C126.752 24.466 127.753 24.2 128.64 23.668C129.552 23.136 130.236 22.4267 130.692 21.54L134.226 23.554C133.415 25.074 132.25 26.2773 130.73 27.164C129.21 28.0507 127.525 28.494 125.676 28.494ZM153.463 9H157.567V28H153.463V25.264C151.918 27.4173 149.701 28.494 146.813 28.494C144.204 28.494 141.974 27.5313 140.125 25.606C138.276 23.6553 137.351 21.2867 137.351 18.5C137.351 15.688 138.276 13.3193 140.125 11.394C141.974 9.46867 144.204 8.506 146.813 8.506C149.701 8.506 151.918 9.57 153.463 11.698V9ZM143.165 22.87C144.305 24.01 145.736 24.58 147.459 24.58C149.182 24.58 150.613 24.01 151.753 22.87C152.893 21.7047 153.463 20.248 153.463 18.5C153.463 16.752 152.893 15.308 151.753 14.168C150.613 13.0027 149.182 12.42 147.459 12.42C145.736 12.42 144.305 13.0027 143.165 14.168C142.025 15.308 141.455 16.752 141.455 18.5C141.455 20.248 142.025 21.7047 143.165 22.87ZM173.865 8.506C176.043 8.506 177.804 9.20267 179.147 10.596C180.489 11.9893 181.161 13.902 181.161 16.334V28H177.057V16.752C177.057 15.3333 176.677 14.244 175.917 13.484C175.157 12.724 174.118 12.344 172.801 12.344C171.357 12.344 170.191 12.8 169.305 13.712C168.418 14.5987 167.975 15.9667 167.975 17.816V28H163.871V9H167.975V11.432C169.216 9.48133 171.179 8.506 173.865 8.506ZM220.008 9H224.34L218.374 28H214.346L210.394 15.194L206.404 28H202.376L196.41 9H200.742L204.428 22.11L208.418 9H212.332L216.284 22.11L220.008 9ZM231.37 20.248C231.674 21.692 232.37 22.8067 233.46 23.592C234.549 24.352 235.879 24.732 237.45 24.732C239.628 24.732 241.262 23.9467 242.352 22.376L245.734 24.352C243.859 27.1133 241.085 28.494 237.412 28.494C234.321 28.494 231.826 27.5567 229.926 25.682C228.026 23.782 227.076 21.388 227.076 18.5C227.076 15.6627 228.013 13.294 229.888 11.394C231.762 9.46867 234.169 8.506 237.108 8.506C239.894 8.506 242.174 9.48133 243.948 11.432C245.746 13.3827 246.646 15.7513 246.646 18.538C246.646 18.9687 246.595 19.5387 246.494 20.248H231.37ZM231.332 16.904H242.504C242.225 15.3587 241.579 14.1933 240.566 13.408C239.578 12.6227 238.412 12.23 237.07 12.23C235.55 12.23 234.283 12.648 233.27 13.484C232.256 14.32 231.61 15.46 231.332 16.904ZM277.845 1.4H281.949V28H277.845V25.264C276.299 27.4173 274.083 28.494 271.195 28.494C268.585 28.494 266.356 27.5313 264.507 25.606C262.657 23.6553 261.733 21.2867 261.733 18.5C261.733 15.688 262.657 13.3193 264.507 11.394C266.356 9.46867 268.585 8.506 271.195 8.506C274.083 8.506 276.299 9.57 277.845 11.698V1.4ZM267.547 22.87C268.687 24.01 270.118 24.58 271.841 24.58C273.563 24.58 274.995 24.01 276.135 22.87C277.275 21.7047 277.845 20.248 277.845 18.5C277.845 16.752 277.275 15.308 276.135 14.168C274.995 13.0027 273.563 12.42 271.841 12.42C270.118 12.42 268.687 13.0027 267.547 14.168C266.407 15.308 265.837 16.752 265.837 18.5C265.837 20.248 266.407 21.7047 267.547 22.87ZM297.22 28.494C294.434 28.494 292.065 27.5313 290.114 25.606C288.164 23.6807 287.188 21.312 287.188 18.5C287.188 15.688 288.164 13.3193 290.114 11.394C292.065 9.46867 294.434 8.506 297.22 8.506C300.032 8.506 302.401 9.46867 304.326 11.394C306.277 13.3193 307.252 15.688 307.252 18.5C307.252 21.312 306.277 23.6807 304.326 25.606C302.401 27.5313 300.032 28.494 297.22 28.494ZM293.002 22.794C294.142 23.934 295.548 24.504 297.22 24.504C298.892 24.504 300.298 23.934 301.438 22.794C302.578 21.654 303.148 20.2227 303.148 18.5C303.148 16.7773 302.578 15.346 301.438 14.206C300.298 13.066 298.892 12.496 297.22 12.496C295.548 12.496 294.142 13.066 293.002 14.206C291.862 15.346 291.292 16.7773 291.292 18.5C291.292 20.2227 291.862 21.654 293.002 22.794ZM315.017 19.64C315.017 18.6013 315.245 17.6387 315.701 16.752C316.157 15.8653 316.715 15.1053 317.373 14.472C318.032 13.8133 318.691 13.1927 319.349 12.61C320.008 12.002 320.565 11.356 321.021 10.672C321.477 9.96267 321.705 9.228 321.705 8.468C321.705 7.404 321.338 6.59333 320.603 6.036C319.869 5.45333 318.881 5.162 317.639 5.162C316.449 5.162 315.423 5.466 314.561 6.074C313.7 6.682 313.079 7.54333 312.699 8.658L308.937 6.53C309.647 4.73133 310.787 3.35067 312.357 2.388C313.953 1.4 315.752 0.905998 317.753 0.905998C320.008 0.905998 321.959 1.552 323.605 2.844C325.252 4.136 326.075 5.922 326.075 8.202C326.075 9.266 325.847 10.2667 325.391 11.204C324.935 12.116 324.378 12.9013 323.719 13.56C323.061 14.2187 322.402 14.8647 321.743 15.498C321.085 16.106 320.527 16.7647 320.071 17.474C319.615 18.1833 319.387 18.9053 319.387 19.64H315.017ZM319.235 27.62C318.678 28.1773 318.007 28.456 317.221 28.456C316.436 28.456 315.765 28.1773 315.207 27.62C314.65 27.0627 314.371 26.3913 314.371 25.606C314.371 24.8207 314.637 24.1493 315.169 23.592C315.727 23.0347 316.411 22.756 317.221 22.756C318.007 22.756 318.678 23.0347 319.235 23.592C319.793 24.1493 320.071 24.8207 320.071 25.606C320.071 26.3913 319.793 27.0627 319.235 27.62Z" fill="white"/>
</svg>
